<svg width="240" height="48" viewBox="0 0 240 48" fill="none" xmlns="http://www.w3.org/2000/svg">
<path d="M23.0035 33.885C24.2602 32.6283 25.3218 30.9383 26.1885 28.815C27.0552 26.6483 27.4885 24.3517 27.4885 21.925C27.4885 19.4983 27.0552 17.44 26.1885 15.75C25.3218 14.0167 24.3035 12.7167 23.1335 11.85C21.9635 10.94 20.6202 10.2033 19.1035 9.64C16.7635 8.77333 14.5318 8.34 12.4085 8.34C11.8452 8.34 11.5635 8.36167 11.5635 8.405C11.2602 8.70833 11.1085 13.8217 11.1085 23.745C11.1085 33.6683 11.2602 38.7817 11.5635 39.085C11.6502 39.1717 11.9535 39.215 12.4735 39.215C13.0368 39.215 13.8602 39.0633 14.9435 38.76C16.0702 38.4567 17.3702 37.8933 18.8435 37.07C20.3602 36.2033 21.7468 35.1417 23.0035 33.885ZM2.8535 35.12L3.0485 9.445C2.57183 8.70833 1.96516 7.40833 1.2285 5.545C0.49183 3.63833 0.123496 2.51166 0.123496 2.165C0.123496 1.775 0.145163 1.55833 0.188496 1.515C0.62183 1.08167 3.1785 0.864999 7.8585 0.864999C16.8718 0.864999 23.8268 2.75 28.7235 6.52C33.6635 10.29 36.1335 15.3383 36.1335 21.665C36.1335 24.785 35.6352 27.6667 34.6385 30.31C33.6418 32.91 32.2985 35.12 30.6085 36.94C28.9618 38.7167 27.0985 40.2983 25.0185 41.685C22.9818 43.0283 20.8152 44.09 18.5185 44.87C14.0118 46.3433 9.91683 47.08 6.2335 47.08C4.50016 47.08 3.5035 46.95 3.2435 46.69C2.9835 46.43 2.8535 42.5733 2.8535 35.12ZM52.251 39.215C52.4243 39.215 52.511 40.2983 52.511 42.465C52.511 44.5883 52.381 45.65 52.121 45.65C45.8376 45.65 41.331 45.9533 38.601 46.56C38.471 46.56 38.406 45.6067 38.406 43.7C38.406 41.7933 38.5576 40.645 38.861 40.255C39.381 39.995 40.226 39.865 41.396 39.865C41.3093 38.3917 41.266 33.1483 41.266 24.135C41.266 15.0783 41.3743 9.9 41.591 8.6H41.461C40.291 8.6 39.316 8.73 38.536 8.99C38.4493 8.99 38.406 8.015 38.406 6.065C38.406 4.07166 38.536 2.945 38.796 2.685C39.056 2.425 40.7893 2.18667 43.996 1.97C47.2026 1.75333 49.8893 1.645 52.056 1.645C52.186 1.645 52.251 1.99166 52.251 2.685L52.056 7.495C52.056 7.66833 51.991 7.755 51.861 7.755C50.3876 7.755 49.6076 7.79833 49.521 7.885C49.4343 7.92833 49.3693 8.81666 49.326 10.55C49.1526 17.3967 49.066 23.3333 49.066 28.36C49.066 33.3433 49.2393 36.9833 49.586 39.28C50.1493 39.2367 51.0376 39.215 52.251 39.215ZM78.2276 26.67L74.2626 26.865C74.0893 26.865 74.0026 26.5833 74.0026 26.02C74.0026 25.4567 74.1976 24.5033 74.5876 23.16C74.9776 21.8167 75.4759 20.8417 76.0826 20.235C76.6893 19.6283 81.8026 19.325 91.4226 19.325C93.8926 19.325 95.1276 19.4333 95.1276 19.65C95.1276 20.6467 94.8459 22.0117 94.2826 23.745C93.7626 25.435 93.3076 26.5617 92.9176 27.125C92.8743 38.7817 92.7226 44.8267 92.4626 45.26C92.2459 45.6933 91.4659 46.17 90.1226 46.69C88.7793 47.2533 87.6309 47.535 86.6776 47.535C85.7676 47.535 85.3126 47.47 85.3126 47.34C85.3126 45 85.2043 43.5917 84.9876 43.115L84.8576 42.985L84.6626 43.115C82.1059 45.6717 78.7693 46.95 74.6526 46.95C69.0193 46.95 64.7726 45.13 61.9126 41.49C59.0959 37.85 57.6876 33.1483 57.6876 27.385C57.6876 22.5317 58.5759 18.1333 60.3526 14.19C61.4793 11.72 62.9093 9.575 64.6426 7.755C66.4193 5.935 68.8459 4.41833 71.9226 3.205C75.0426 1.99167 78.6393 1.385 82.7126 1.385C83.6226 1.385 84.8793 1.49333 86.4826 1.71C88.0859 1.92667 88.9309 2.1 89.0176 2.23C89.1476 2.36 89.2126 2.83666 89.2126 3.66C89.2126 4.48333 89.1043 5.61 88.8876 7.04C88.6709 8.47 88.4326 9.315 88.1726 9.575C86.8293 8.88166 84.5543 8.535 81.3476 8.535C76.7543 8.535 73.0926 10.0733 70.3626 13.15C67.6326 16.2267 66.2676 20.7333 66.2676 26.67C66.2676 30.4833 67.0476 33.5383 68.6076 35.835C70.1676 38.1317 72.3559 39.28 75.1726 39.28C77.9893 39.28 80.2643 38.5867 81.9976 37.2C83.7743 35.8133 84.6626 34.6433 84.6626 33.69V31.61C84.6626 28.9667 84.5326 27.515 84.2726 27.255C83.9693 26.865 81.9543 26.67 78.2276 26.67ZM113.188 39.215C113.362 39.215 113.448 40.2983 113.448 42.465C113.448 44.5883 113.318 45.65 113.058 45.65C106.775 45.65 102.268 45.9533 99.5385 46.56C99.4085 46.56 99.3435 45.6067 99.3435 43.7C99.3435 41.7933 99.4951 40.645 99.7985 40.255C100.318 39.995 101.163 39.865 102.333 39.865C102.247 38.3917 102.203 33.1483 102.203 24.135C102.203 15.0783 102.312 9.9 102.528 8.6H102.398C101.228 8.6 100.253 8.73 99.4735 8.99C99.3868 8.99 99.3435 8.015 99.3435 6.065C99.3435 4.07166 99.4735 2.945 99.7335 2.685C99.9935 2.425 101.727 2.18667 104.933 1.97C108.14 1.75333 110.827 1.645 112.993 1.645C113.123 1.645 113.188 1.99166 113.188 2.685L112.993 7.495C112.993 7.66833 112.928 7.755 112.798 7.755C111.325 7.755 110.545 7.79833 110.458 7.885C110.372 7.92833 110.307 8.81666 110.263 10.55C110.09 17.3967 110.003 23.3333 110.003 28.36C110.003 33.3433 110.177 36.9833 110.523 39.28C111.087 39.2367 111.975 39.215 113.188 39.215ZM118.435 47.665C117.482 47.665 116.702 47.535 116.095 47.275C116.095 39.995 116.724 29.6167 117.98 16.14L118.565 9.445C117.959 8.70833 117.374 7.58167 116.81 6.065C116.29 4.54833 116.03 3.48667 116.03 2.88L116.095 2.685C116.225 2.51166 117.309 2.36 119.345 2.23C121.382 2.1 123.614 2.035 126.04 2.035C128.51 2.035 129.854 2.14333 130.07 2.36C130.287 2.57667 131.327 5.30667 133.19 10.55C135.054 15.75 136.44 19.78 137.35 22.64C137.437 22.8567 137.545 22.965 137.675 22.965C137.805 22.965 138.022 22.51 138.325 21.6C138.629 20.6467 139.885 17.3967 142.095 11.85C144.305 6.26 145.779 3.09666 146.515 2.36C146.905 1.97 149.007 1.775 152.82 1.775C156.634 1.775 158.54 1.88333 158.54 2.1C158.54 2.83667 158.237 4.115 157.63 5.935C157.067 7.755 156.59 9.03333 156.2 9.77C157.717 23.5067 158.475 35.6617 158.475 46.235C158.475 46.6683 157.587 47.0583 155.81 47.405C154.077 47.795 152.647 47.99 151.52 47.99C150.394 47.99 149.83 47.9033 149.83 47.73C149.96 45.9533 150.025 43.0933 150.025 39.15C150.025 35.1633 149.917 30.44 149.7 24.98C149.484 18.1767 149.224 14.775 148.92 14.775L148.53 15.165C147.664 16.7683 146.537 19.4767 145.15 23.29C143.807 27.1033 142.68 30.5267 141.77 33.56L140.405 38.045C140.189 38.5217 139.539 38.76 138.455 38.76C137.415 38.76 136.549 38.695 135.855 38.565C135.205 38.435 134.859 38.305 134.815 38.175C134.685 37.6983 133.342 33.9067 130.785 26.8C128.229 19.65 126.755 15.8367 126.365 15.36C126.235 15.1 126.127 14.97 126.04 14.97C125.954 14.97 125.889 15.1217 125.845 15.425C125.065 19.3683 124.675 25.175 124.675 32.845C124.675 40.4717 124.784 44.8917 125 46.105C123.917 47.145 121.729 47.665 118.435 47.665ZM180.444 46.95C173.987 46.95 169.199 45.0867 166.079 41.36C163.002 37.6333 161.464 32.9533 161.464 27.32C161.464 24.59 161.789 22.0333 162.439 19.65C163.089 17.2667 163.696 15.5767 164.259 14.58C164.822 13.5833 165.277 12.9983 165.624 12.825C165.971 12.6083 167.336 12.5 169.719 12.5H170.954C170.954 10.3333 171.366 8.44833 172.189 6.845C173.056 5.24167 174.161 4.05 175.504 3.27C178.017 1.84 180.401 1.125 182.654 1.125C194.701 1.125 200.724 8.70833 200.724 23.875C200.724 28.5983 199.922 32.8017 198.319 36.485C197.409 38.565 196.217 40.3633 194.744 41.88C193.271 43.3533 191.299 44.5667 188.829 45.52C186.402 46.4733 183.607 46.95 180.444 46.95ZM192.339 23.355C192.339 13.1717 189.306 8.08 183.239 8.08C181.506 8.08 180.162 8.57833 179.209 9.575C178.299 10.5717 177.844 11.85 177.844 13.41C177.844 14.9267 178.321 16.725 179.274 18.805C180.271 20.885 181.267 22.5317 182.264 23.745L183.694 25.565C183.694 26.085 182.892 26.5833 181.289 27.06C179.686 27.4933 178.407 27.71 177.454 27.71C177.237 27.71 176.782 27.2983 176.089 26.475C175.439 25.6517 174.659 24.395 173.749 22.705C172.882 20.9717 172.254 19.1517 171.864 17.245C171.214 17.895 170.694 19.2167 170.304 21.21C169.914 23.2033 169.719 25.1317 169.719 26.995C169.719 30.635 170.737 33.755 172.774 36.355C174.811 38.9117 177.389 40.19 180.509 40.19C188.396 40.19 192.339 34.5783 192.339 23.355ZM209.178 46.95C208.312 46.95 207.532 46.82 206.838 46.56V44.61C206.838 37.98 207.055 28.36 207.488 15.75L207.748 9.445C207.185 8.70833 206.622 7.56 206.058 6C205.538 4.39667 205.278 3.42166 205.278 3.075C205.278 2.685 205.322 2.44666 205.408 2.36C205.495 2.27333 206.578 2.165 208.658 2.035C210.782 1.86167 212.948 1.775 215.158 1.775C217.412 1.775 218.668 1.88333 218.928 2.1C226.598 19.26 230.498 28.0133 230.628 28.36C230.802 28.7067 230.932 28.88 231.018 28.88L231.278 28.425V26.605C231.278 22.9217 231.148 18.3283 230.888 12.825C230.672 7.32166 230.433 3.89833 230.173 2.555C230.78 1.99167 231.885 1.515 233.488 1.125C235.135 0.691664 236.608 0.474996 237.908 0.474996C239.252 0.474996 239.923 0.58333 239.923 0.8C239.923 1.66667 239.772 2.685 239.468 3.855C239.165 5.025 239.013 5.63167 239.013 5.675C238.71 7.625 238.558 10.68 238.558 14.84C238.558 18.9567 238.558 21.925 238.558 23.745C238.602 25.565 238.623 27.32 238.623 29.01C238.667 30.6567 238.71 32.3033 238.753 33.95C238.797 35.5533 238.818 37.0267 238.818 38.37C238.905 41.23 238.948 43.2233 238.948 44.35L239.013 45.26C239.013 45.39 238.732 45.5633 238.168 45.78C236.478 46.4733 234.203 46.82 231.343 46.82L228.938 46.56C227.205 41.6633 224.67 35.4883 221.333 28.035C217.997 20.5817 216.133 16.5733 215.743 16.01C215.353 15.4033 215.115 15.1 215.028 15.1L214.833 15.555C214.66 16.7683 214.573 19.39 214.573 23.42C214.573 27.4067 214.66 31.7617 214.833 36.485C215.05 41.2083 215.288 44.1767 215.548 45.39C214.378 46.43 212.255 46.95 209.178 46.95Z" fill="#6B700E"/>
</svg>
