<svg width="270" height="53" viewBox="0 0 270 53" fill="none" xmlns="http://www.w3.org/2000/svg">
<g filter="url(#filter0_dd_4_4115)">
<rect x="4" y="3" width="262" height="45" rx="12" fill="#EFF8FF"/>
<rect x="3" y="2" width="264" height="47" rx="13" stroke="#DB2515" stroke-width="2"/>
<path d="M18.288 26.264C18.5973 25.9547 18.8587 25.5387 19.072 25.016C19.2853 24.4827 19.392 23.9173 19.392 23.32C19.392 22.7227 19.2853 22.216 19.072 21.8C18.8587 21.3733 18.608 21.0533 18.32 20.84C18.032 20.616 17.7013 20.4347 17.328 20.296C16.752 20.0827 16.2027 19.976 15.68 19.976C15.5413 19.976 15.472 19.9813 15.472 19.992C15.3973 20.0667 15.36 21.3253 15.36 23.768C15.36 26.2107 15.3973 27.4693 15.472 27.544C15.4933 27.5653 15.568 27.576 15.696 27.576C15.8347 27.576 16.0373 27.5387 16.304 27.464C16.5813 27.3893 16.9013 27.2507 17.264 27.048C17.6373 26.8347 17.9787 26.5733 18.288 26.264ZM13.328 26.568L13.376 20.248C13.2587 20.0667 13.1093 19.7467 12.928 19.288C12.7467 18.8187 12.656 18.5413 12.656 18.456C12.656 18.36 12.6613 18.3067 12.672 18.296C12.7787 18.1893 13.408 18.136 14.56 18.136C16.7787 18.136 18.4907 18.6 19.696 19.528C20.912 20.456 21.52 21.6987 21.52 23.256C21.52 24.024 21.3973 24.7333 21.152 25.384C20.9067 26.024 20.576 26.568 20.16 27.016C19.7547 27.4533 19.296 27.8427 18.784 28.184C18.2827 28.5147 17.7493 28.776 17.184 28.968C16.0747 29.3307 15.0667 29.512 14.16 29.512C13.7333 29.512 13.488 29.48 13.424 29.416C13.36 29.352 13.328 28.4027 13.328 26.568ZM25.4874 27.576C25.53 27.576 25.5514 27.8427 25.5514 28.376C25.5514 28.8987 25.5194 29.16 25.4554 29.16C23.9087 29.16 22.7994 29.2347 22.1274 29.384C22.0954 29.384 22.0794 29.1493 22.0794 28.68C22.0794 28.2107 22.1167 27.928 22.1914 27.832C22.3194 27.768 22.5274 27.736 22.8154 27.736C22.794 27.3733 22.7834 26.0827 22.7834 23.864C22.7834 21.6347 22.81 20.36 22.8634 20.04H22.8314C22.5434 20.04 22.3034 20.072 22.1114 20.136C22.09 20.136 22.0794 19.896 22.0794 19.416C22.0794 18.9253 22.1114 18.648 22.1754 18.584C22.2394 18.52 22.666 18.4613 23.4554 18.408C24.2447 18.3547 24.906 18.328 25.4394 18.328C25.4714 18.328 25.4874 18.4133 25.4874 18.584L25.4394 19.768C25.4394 19.8107 25.4234 19.832 25.3914 19.832C25.0287 19.832 24.8367 19.8427 24.8154 19.864C24.794 19.8747 24.778 20.0933 24.7674 20.52C24.7247 22.2053 24.7034 23.6667 24.7034 24.904C24.7034 26.1307 24.746 27.0267 24.8314 27.592C24.97 27.5813 25.1887 27.576 25.4874 27.576ZM31.8816 24.488L30.9056 24.536C30.863 24.536 30.8416 24.4667 30.8416 24.328C30.8416 24.1893 30.8896 23.9547 30.9856 23.624C31.0816 23.2933 31.2043 23.0533 31.3536 22.904C31.503 22.7547 32.7616 22.68 35.1296 22.68C35.7376 22.68 36.0416 22.7067 36.0416 22.76C36.0416 23.0053 35.9723 23.3413 35.8336 23.768C35.7056 24.184 35.5936 24.4613 35.4976 24.6C35.487 27.4693 35.4496 28.9573 35.3856 29.064C35.3323 29.1707 35.1403 29.288 34.8096 29.416C34.479 29.5547 34.1963 29.624 33.9616 29.624C33.7376 29.624 33.6256 29.608 33.6256 29.576C33.6256 29 33.599 28.6533 33.5456 28.536L33.5136 28.504L33.4656 28.536C32.8363 29.1653 32.015 29.48 31.0016 29.48C29.615 29.48 28.5696 29.032 27.8656 28.136C27.1723 27.24 26.8256 26.0827 26.8256 24.664C26.8256 23.4693 27.0443 22.3867 27.4816 21.416C27.759 20.808 28.111 20.28 28.5376 19.832C28.975 19.384 29.5723 19.0107 30.3296 18.712C31.0976 18.4133 31.983 18.264 32.9856 18.264C33.2096 18.264 33.519 18.2907 33.9136 18.344C34.3083 18.3973 34.5163 18.44 34.5376 18.472C34.5696 18.504 34.5856 18.6213 34.5856 18.824C34.5856 19.0267 34.559 19.304 34.5056 19.656C34.4523 20.008 34.3936 20.216 34.3296 20.28C33.999 20.1093 33.439 20.024 32.6496 20.024C31.519 20.024 30.6176 20.4027 29.9456 21.16C29.2736 21.9173 28.9376 23.0267 28.9376 24.488C28.9376 25.4267 29.1296 26.1787 29.5136 26.744C29.8976 27.3093 30.4363 27.592 31.1296 27.592C31.823 27.592 32.383 27.4213 32.8096 27.08C33.247 26.7387 33.4656 26.4507 33.4656 26.216V25.704C33.4656 25.0533 33.4336 24.696 33.3696 24.632C33.295 24.536 32.799 24.488 31.8816 24.488ZM40.4874 27.576C40.53 27.576 40.5514 27.8427 40.5514 28.376C40.5514 28.8987 40.5194 29.16 40.4554 29.16C38.9087 29.16 37.7994 29.2347 37.1274 29.384C37.0954 29.384 37.0794 29.1493 37.0794 28.68C37.0794 28.2107 37.1167 27.928 37.1914 27.832C37.3194 27.768 37.5274 27.736 37.8154 27.736C37.794 27.3733 37.7834 26.0827 37.7834 23.864C37.7834 21.6347 37.81 20.36 37.8634 20.04H37.8314C37.5434 20.04 37.3034 20.072 37.1114 20.136C37.09 20.136 37.0794 19.896 37.0794 19.416C37.0794 18.9253 37.1114 18.648 37.1754 18.584C37.2394 18.52 37.666 18.4613 38.4554 18.408C39.2447 18.3547 39.906 18.328 40.4394 18.328C40.4714 18.328 40.4874 18.4133 40.4874 18.584L40.4394 19.768C40.4394 19.8107 40.4234 19.832 40.3914 19.832C40.0287 19.832 39.8367 19.8427 39.8154 19.864C39.794 19.8747 39.778 20.0933 39.7674 20.52C39.7247 22.2053 39.7034 23.6667 39.7034 24.904C39.7034 26.1307 39.746 27.0267 39.8314 27.592C39.97 27.5813 40.1887 27.576 40.4874 27.576ZM41.7789 29.656C41.5442 29.656 41.3522 29.624 41.2029 29.56C41.2029 27.768 41.3575 25.2133 41.6669 21.896L41.8109 20.248C41.6615 20.0667 41.5175 19.7893 41.3789 19.416C41.2509 19.0427 41.1869 18.7813 41.1869 18.632L41.2029 18.584C41.2349 18.5413 41.5015 18.504 42.0029 18.472C42.5042 18.44 43.0535 18.424 43.6509 18.424C44.2589 18.424 44.5895 18.4507 44.6429 18.504C44.6962 18.5573 44.9522 19.2293 45.4109 20.52C45.8695 21.8 46.2109 22.792 46.4349 23.496C46.4562 23.5493 46.4829 23.576 46.5149 23.576C46.5469 23.576 46.6002 23.464 46.6749 23.24C46.7495 23.0053 47.0589 22.2053 47.6029 20.84C48.1469 19.464 48.5095 18.6853 48.6909 18.504C48.7869 18.408 49.3042 18.36 50.2429 18.36C51.1815 18.36 51.6509 18.3867 51.6509 18.44C51.6509 18.6213 51.5762 18.936 51.4269 19.384C51.2882 19.832 51.1709 20.1467 51.0749 20.328C51.4482 23.7093 51.6349 26.7013 51.6349 29.304C51.6349 29.4107 51.4162 29.5067 50.9789 29.592C50.5522 29.688 50.2002 29.736 49.9229 29.736C49.6455 29.736 49.5069 29.7147 49.5069 29.672C49.5389 29.2347 49.5549 28.5307 49.5549 27.56C49.5549 26.5787 49.5282 25.416 49.4749 24.072C49.4215 22.3973 49.3575 21.56 49.2829 21.56L49.1869 21.656C48.9735 22.0507 48.6962 22.7173 48.3549 23.656C48.0242 24.5947 47.7469 25.4373 47.5229 26.184L47.1869 27.288C47.1335 27.4053 46.9735 27.464 46.7069 27.464C46.4509 27.464 46.2375 27.448 46.0669 27.416C45.9069 27.384 45.8215 27.352 45.8109 27.32C45.7789 27.2027 45.4482 26.2693 44.8189 24.52C44.1895 22.76 43.8269 21.8213 43.7309 21.704C43.6989 21.64 43.6722 21.608 43.6509 21.608C43.6295 21.608 43.6135 21.6453 43.6029 21.72C43.4109 22.6907 43.3149 24.12 43.3149 26.008C43.3149 27.8853 43.3415 28.9733 43.3949 29.272C43.1282 29.528 42.5895 29.656 41.7789 29.656ZM57.0426 29.48C55.4533 29.48 54.2746 29.0213 53.5066 28.104C52.7493 27.1867 52.3706 26.0347 52.3706 24.648C52.3706 23.976 52.4506 23.3467 52.6106 22.76C52.7706 22.1733 52.92 21.7573 53.0586 21.512C53.1973 21.2667 53.3093 21.1227 53.3946 21.08C53.48 21.0267 53.816 21 54.4026 21H54.7066C54.7066 20.4667 54.808 20.0027 55.0106 19.608C55.224 19.2133 55.496 18.92 55.8266 18.728C56.4453 18.376 57.032 18.2 57.5866 18.2C60.552 18.2 62.0346 20.0667 62.0346 23.8C62.0346 24.9627 61.8373 25.9973 61.4426 26.904C61.2186 27.416 60.9253 27.8587 60.5626 28.232C60.2 28.5947 59.7146 28.8933 59.1066 29.128C58.5093 29.3627 57.8213 29.48 57.0426 29.48ZM59.9706 23.672C59.9706 21.1653 59.224 19.912 57.7306 19.912C57.304 19.912 56.9733 20.0347 56.7386 20.28C56.5146 20.5253 56.4026 20.84 56.4026 21.224C56.4026 21.5973 56.52 22.04 56.7546 22.552C57 23.064 57.2453 23.4693 57.4906 23.768L57.8426 24.216C57.8426 24.344 57.6453 24.4667 57.2506 24.584C56.856 24.6907 56.5413 24.744 56.3066 24.744C56.2533 24.744 56.1413 24.6427 55.9706 24.44C55.8106 24.2373 55.6186 23.928 55.3946 23.512C55.1813 23.0853 55.0266 22.6373 54.9306 22.168C54.7706 22.328 54.6426 22.6533 54.5466 23.144C54.4506 23.6347 54.4026 24.1093 54.4026 24.568C54.4026 25.464 54.6533 26.232 55.1546 26.872C55.656 27.5013 56.2906 27.816 57.0586 27.816C59 27.816 59.9706 26.4347 59.9706 23.672ZM64.1156 29.48C63.9023 29.48 63.7103 29.448 63.5396 29.384V28.904C63.5396 27.272 63.593 24.904 63.6996 21.8L63.7636 20.248C63.625 20.0667 63.4863 19.784 63.3476 19.4C63.2196 19.0053 63.1556 18.7653 63.1556 18.68C63.1556 18.584 63.1663 18.5253 63.1876 18.504C63.209 18.4827 63.4756 18.456 63.9876 18.424C64.5103 18.3813 65.0436 18.36 65.5876 18.36C66.1423 18.36 66.4516 18.3867 66.5156 18.44C68.4036 22.664 69.3636 24.8187 69.3956 24.904C69.4383 24.9893 69.4703 25.032 69.4916 25.032L69.5556 24.92V24.472C69.5556 23.5653 69.5236 22.4347 69.4596 21.08C69.4063 19.7253 69.3476 18.8827 69.2836 18.552C69.433 18.4133 69.705 18.296 70.0996 18.2C70.505 18.0933 70.8676 18.04 71.1876 18.04C71.5183 18.04 71.6836 18.0667 71.6836 18.12C71.6836 18.3333 71.6463 18.584 71.5716 18.872C71.497 19.16 71.4596 19.3093 71.4596 19.32C71.385 19.8 71.3476 20.552 71.3476 21.576C71.3476 22.5893 71.3476 23.32 71.3476 23.768C71.3583 24.216 71.3636 24.648 71.3636 25.064C71.3743 25.4693 71.385 25.8747 71.3956 26.28C71.4063 26.6747 71.4116 27.0373 71.4116 27.368C71.433 28.072 71.4436 28.5627 71.4436 28.84L71.4596 29.064C71.4596 29.096 71.3903 29.1387 71.2516 29.192C70.8356 29.3627 70.2756 29.448 69.5716 29.448L68.9796 29.384C68.553 28.1787 67.929 26.6587 67.1076 24.824C66.2863 22.9893 65.8276 22.0027 65.7316 21.864C65.6356 21.7147 65.577 21.64 65.5556 21.64L65.5076 21.752C65.465 22.0507 65.4436 22.696 65.4436 23.688C65.4436 24.6693 65.465 25.7413 65.5076 26.904C65.561 28.0667 65.6196 28.7973 65.6836 29.096C65.3956 29.352 64.873 29.48 64.1156 29.48ZM77.1313 29.48C76.9179 29.48 76.7259 29.448 76.5553 29.384V28.904C76.5553 27.272 76.6086 24.904 76.7153 21.8L76.7793 20.248C76.6406 20.0667 76.5019 19.784 76.3633 19.4C76.2353 19.0053 76.1713 18.7653 76.1713 18.68C76.1713 18.584 76.1819 18.5253 76.2033 18.504C76.2246 18.4827 76.4913 18.456 77.0033 18.424C77.5259 18.3813 78.0593 18.36 78.6033 18.36C79.1579 18.36 79.4673 18.3867 79.5312 18.44C81.4193 22.664 82.3793 24.8187 82.4113 24.904C82.4539 24.9893 82.4859 25.032 82.5073 25.032L82.5713 24.92V24.472C82.5713 23.5653 82.5393 22.4347 82.4753 21.08C82.4219 19.7253 82.3633 18.8827 82.2993 18.552C82.4486 18.4133 82.7206 18.296 83.1153 18.2C83.5206 18.0933 83.8833 18.04 84.2033 18.04C84.5339 18.04 84.6993 18.0667 84.6993 18.12C84.6993 18.3333 84.6619 18.584 84.5873 18.872C84.5126 19.16 84.4753 19.3093 84.4753 19.32C84.4006 19.8 84.3633 20.552 84.3633 21.576C84.3633 22.5893 84.3633 23.32 84.3633 23.768C84.3739 24.216 84.3793 24.648 84.3793 25.064C84.3899 25.4693 84.4006 25.8747 84.4113 26.28C84.4219 26.6747 84.4273 27.0373 84.4273 27.368C84.4486 28.072 84.4593 28.5627 84.4593 28.84L84.4753 29.064C84.4753 29.096 84.4059 29.1387 84.2673 29.192C83.8513 29.3627 83.2913 29.448 82.5873 29.448L81.9953 29.384C81.5686 28.1787 80.9446 26.6587 80.1233 24.824C79.3019 22.9893 78.8433 22.0027 78.7473 21.864C78.6513 21.7147 78.5926 21.64 78.5713 21.64L78.5233 21.752C78.4806 22.0507 78.4593 22.696 78.4593 23.688C78.4593 24.6693 78.4806 25.7413 78.5233 26.904C78.5766 28.0667 78.6353 28.7973 78.6993 29.096C78.4113 29.352 77.8886 29.48 77.1313 29.48ZM91.5038 25.416C91.3544 25.4053 90.8958 25.4 90.1278 25.4C89.3598 25.4 88.9118 25.4213 88.7838 25.464C88.2184 27.32 87.8984 28.6587 87.8238 29.48C87.8238 29.4907 87.6904 29.496 87.4238 29.496C87.1678 29.496 86.9011 29.48 86.6238 29.448C86.0371 29.3627 85.7438 29.288 85.7438 29.224C85.7438 28.7973 86.1224 27.5547 86.8798 25.496C86.7411 25.3787 86.5811 25.1387 86.3997 24.776C86.2184 24.4027 86.1278 24.0933 86.1278 23.848C86.1278 23.8373 86.5704 23.816 87.4557 23.784C88.3304 21.2453 88.8264 19.9067 88.9438 19.768C88.9864 19.736 89.1784 19.688 89.5198 19.624C89.8611 19.5493 90.0798 19.512 90.1758 19.512L90.1438 19.304C90.1224 19.1547 90.0958 18.9947 90.0638 18.824C90.0424 18.6427 90.0318 18.5253 90.0318 18.472C90.0318 18.44 90.1224 18.376 90.3038 18.28C90.8264 18.024 91.3651 17.896 91.9198 17.896C92.0264 18.5253 92.1651 19.3307 92.3358 20.312C92.5171 21.2827 92.8638 22.7707 93.3758 24.776C93.8878 26.7813 94.3784 28.1787 94.8478 28.968L94.9598 29.16C94.9598 29.2133 94.8584 29.304 94.6558 29.432C94.4531 29.56 94.1864 29.6827 93.8558 29.8C93.5251 29.9173 93.2211 29.976 92.9438 29.976C92.8478 29.976 92.6131 29.3733 92.2398 28.168C91.8771 26.952 91.6318 26.0347 91.5038 25.416ZM91.1198 23.768C90.7571 22.232 90.5598 21.3733 90.5278 21.192C90.4958 21.0107 90.4691 20.92 90.4478 20.92C90.4264 20.92 90.3998 20.9413 90.3678 20.984C90.2718 21.1653 90.0904 21.6027 89.8238 22.296C89.5678 22.9893 89.4024 23.4693 89.3278 23.736C90.5118 23.736 91.1091 23.7467 91.1198 23.768ZM95.9508 29.656C95.7161 29.656 95.5241 29.624 95.3748 29.56C95.3748 27.768 95.5294 25.2133 95.8388 21.896L95.9828 20.248C95.8334 20.0667 95.6894 19.7893 95.5508 19.416C95.4228 19.0427 95.3588 18.7813 95.3588 18.632L95.3748 18.584C95.4068 18.5413 95.6734 18.504 96.1748 18.472C96.6761 18.44 97.2254 18.424 97.8228 18.424C98.4308 18.424 98.7614 18.4507 98.8148 18.504C98.8681 18.5573 99.1241 19.2293 99.5828 20.52C100.041 21.8 100.383 22.792 100.607 23.496C100.628 23.5493 100.655 23.576 100.687 23.576C100.719 23.576 100.772 23.464 100.847 23.24C100.921 23.0053 101.231 22.2053 101.775 20.84C102.319 19.464 102.681 18.6853 102.863 18.504C102.959 18.408 103.476 18.36 104.415 18.36C105.353 18.36 105.823 18.3867 105.823 18.44C105.823 18.6213 105.748 18.936 105.599 19.384C105.46 19.832 105.343 20.1467 105.247 20.328C105.62 23.7093 105.807 26.7013 105.807 29.304C105.807 29.4107 105.588 29.5067 105.151 29.592C104.724 29.688 104.372 29.736 104.095 29.736C103.817 29.736 103.679 29.7147 103.679 29.672C103.711 29.2347 103.727 28.5307 103.727 27.56C103.727 26.5787 103.7 25.416 103.647 24.072C103.593 22.3973 103.529 21.56 103.455 21.56L103.359 21.656C103.145 22.0507 102.868 22.7173 102.527 23.656C102.196 24.5947 101.919 25.4373 101.695 26.184L101.359 27.288C101.305 27.4053 101.145 27.464 100.879 27.464C100.623 27.464 100.409 27.448 100.239 27.416C100.079 27.384 99.9934 27.352 99.9828 27.32C99.9508 27.2027 99.6201 26.2693 98.9908 24.52C98.3614 22.76 97.9988 21.8213 97.9028 21.704C97.8708 21.64 97.8441 21.608 97.8228 21.608C97.8014 21.608 97.7854 21.6453 97.7748 21.72C97.5828 22.6907 97.4868 24.12 97.4868 26.008C97.4868 27.8853 97.5134 28.9733 97.5668 29.272C97.3001 29.528 96.7614 29.656 95.9508 29.656ZM107.863 22.744L107.879 21.016C107.879 20.5573 107.868 20.3067 107.847 20.264C107.73 20.1467 107.575 19.864 107.383 19.416C107.202 18.968 107.111 18.68 107.111 18.552C107.228 18.4347 109.1 18.376 112.727 18.376C113.623 18.376 114.071 18.3973 114.071 18.44C114.071 18.664 114.018 18.9093 113.911 19.176C113.815 19.4427 113.708 19.656 113.591 19.816C113.484 19.976 113.404 20.0507 113.351 20.04C113.308 20.0187 113.09 20.008 112.695 20.008C112.311 20.008 111.772 20.0347 111.079 20.088C110.386 20.1307 110.007 20.184 109.943 20.248C109.879 20.312 109.847 20.8987 109.847 22.008L109.863 22.68C110.29 22.6693 110.919 22.664 111.751 22.664C112.583 22.664 112.999 22.68 112.999 22.712C112.999 23.096 112.871 23.5333 112.615 24.024C112.519 24.1947 112.46 24.2747 112.439 24.264C112.162 24.264 111.687 24.2907 111.015 24.344C110.343 24.3867 109.954 24.44 109.847 24.504C109.836 24.5147 109.831 24.9627 109.831 25.848C109.831 26.7333 109.858 27.2027 109.911 27.256C110.082 27.4267 110.999 27.512 112.663 27.512C113.335 27.512 113.788 27.496 114.023 27.464C114.258 27.4213 114.375 27.4053 114.375 27.416C114.375 27.672 114.29 27.976 114.119 28.328C113.948 28.68 113.767 28.9467 113.575 29.128C113.468 29.2347 112.508 29.288 110.695 29.288C108.892 29.288 107.959 29.2453 107.895 29.16C107.831 29.1067 107.799 28.5947 107.799 27.624C107.799 26.6427 107.81 25.608 107.831 24.52C107.639 24.3493 107.452 24.0827 107.271 23.72C107.1 23.3573 107.015 23.048 107.015 22.792C107.015 22.7813 107.298 22.7653 107.863 22.744Z" fill="#757575"/>
</g>
<defs>
<filter id="filter0_dd_4_4115" x="0" y="0" width="270" height="53" filterUnits="userSpaceOnUse" color-interpolation-filters="sRGB">
<feFlood flood-opacity="0" result="BackgroundImageFix"/>
<feColorMatrix in="SourceAlpha" type="matrix" values="0 0 0 0 0 0 0 0 0 0 0 0 0 0 0 0 0 0 127 0" result="hardAlpha"/>
<feOffset dy="1"/>
<feGaussianBlur stdDeviation="1"/>
<feColorMatrix type="matrix" values="0 0 0 0 0 0 0 0 0 0 0 0 0 0 0 0 0 0 0.2 0"/>
<feBlend mode="normal" in2="BackgroundImageFix" result="effect1_dropShadow_4_4115"/>
<feColorMatrix in="SourceAlpha" type="matrix" values="0 0 0 0 0 0 0 0 0 0 0 0 0 0 0 0 0 0 127 0" result="hardAlpha"/>
<feOffset dy="0.1"/>
<feGaussianBlur stdDeviation="0.15"/>
<feColorMatrix type="matrix" values="0 0 0 0 0 0 0 0 0 0 0 0 0 0 0 0 0 0 0.1 0"/>
<feBlend mode="normal" in2="effect1_dropShadow_4_4115" result="effect2_dropShadow_4_4115"/>
<feBlend mode="normal" in="SourceGraphic" in2="effect2_dropShadow_4_4115" result="shape"/>
</filter>
</defs>
</svg>
